TITLE ""
FILE "Step1_Track10.mp3" MP3
  TRACK 01 AUDIO
    TITLE "Step1_Track10_01"
    INDEX 01 00:00:00
  TRACK 02 AUDIO
    TITLE "Step1_Track10_02"
    INDEX 01 00:00:22
  TRACK 03 AUDIO
    TITLE "Step1_Track10_03"
    INDEX 01 00:01:53
  TRACK 04 AUDIO
    TITLE "Step1_Track10_04"
    INDEX 01 00:02:31
  TRACK 05 AUDIO
    TITLE "Step1_Track10_05"
    INDEX 01 00:03:28
  TRACK 06 AUDIO
    TITLE "Step1_Track10_06"
    INDEX 01 00:03:60
  TRACK 07 AUDIO
    TITLE "Step1_Track10_07"
    INDEX 01 00:05:62
  TRACK 08 AUDIO
    TITLE "Step1_Track10_08"
    INDEX 01 00:06:03
  TRACK 09 AUDIO
    TITLE "Step1_Track10_09"
    INDEX 01 00:06:74
  TRACK 10 AUDIO
    TITLE "Step1_Track10_10"
    INDEX 01 00:07:06
  TRACK 11 AUDIO
    TITLE "Step1_Track10_11"
    INDEX 01 00:08:45
  TRACK 12 AUDIO
    TITLE "Step1_Track10_12"
    INDEX 01 00:08:73
  TRACK 13 AUDIO
    TITLE "Step1_Track10_13"
    INDEX 01 00:09:64
  TRACK 14 AUDIO
    TITLE "Step1_Track10_14"
    INDEX 01 00:09:70
  TRACK 15 AUDIO
    TITLE "Step1_Track10_15"
    INDEX 01 00:11:32
  TRACK 16 AUDIO
    TITLE "Step1_Track10_16"
    INDEX 01 00:11:57
  TRACK 17 AUDIO
    TITLE "Step1_Track10_17"
    INDEX 01 00:12:49
  TRACK 18 AUDIO
    TITLE "Step1_Track10_18"
    INDEX 01 00:12:68
  TRACK 19 AUDIO
    TITLE "Step1_Track10_19"
    INDEX 01 00:14:67
  TRACK 20 AUDIO
    TITLE "Step1_Track10_20"
    INDEX 01 00:15:02
  TRACK 21 AUDIO
    TITLE "Step1_Track10_21"
    INDEX 01 00:15:71
  TRACK 22 AUDIO
    TITLE "Step1_Track10_22"
    INDEX 01 00:16:11
  TRACK 23 AUDIO
    TITLE "Step1_Track10_23"
    INDEX 01 00:18:20
  TRACK 24 AUDIO
    TITLE "Step1_Track10_24"
    INDEX 01 00:18:32
  TRACK 25 AUDIO
    TITLE "Step1_Track10_25"
    INDEX 01 00:19:37
  TRACK 26 AUDIO
    TITLE "Step1_Track10_26"
    INDEX 01 00:19:55
  TRACK 27 AUDIO
    TITLE "Step1_Track10_27"
    INDEX 01 00:21:67
  TRACK 28 AUDIO
    TITLE "Step1_Track10_28"
    INDEX 01 00:22:10
  TRACK 29 AUDIO
    TITLE "Step1_Track10_29"
    INDEX 01 00:23:15
  TRACK 30 AUDIO
    TITLE "Step1_Track10_30"
    INDEX 01 00:23:25
  TRACK 31 AUDIO
    TITLE "Step1_Track10_31"
    INDEX 01 00:25:04
  TRACK 32 AUDIO
    TITLE "Step1_Track10_32"
    INDEX 01 00:25:34
  TRACK 33 AUDIO
    TITLE "Step1_Track10_33"
    INDEX 01 00:26:23
  TRACK 34 AUDIO
    TITLE "Step1_Track10_34"
    INDEX 01 00:26:43
  TRACK 35 AUDIO
    TITLE "Step1_Track10_35"
    INDEX 01 00:29:04
  TRACK 36 AUDIO
    TITLE "Step1_Track10_36"
    INDEX 01 00:29:14
  TRACK 37 AUDIO
    TITLE "Step1_Track10_37"
    INDEX 01 00:30:19
  TRACK 38 AUDIO
    TITLE "Step1_Track10_38"
    INDEX 01 00:30:27
  TRACK 39 AUDIO
    TITLE "Step1_Track10_39"
    INDEX 01 00:32:49
  TRACK 40 AUDIO
    TITLE "Step1_Track10_40"
    INDEX 01 00:32:63
  TRACK 41 AUDIO
    TITLE "Step1_Track10_41"
    INDEX 01 00:33:59
  TRACK 42 AUDIO
    TITLE "Step1_Track10_42"
    INDEX 01 00:33:70
  TRACK 43 AUDIO
    TITLE "Step1_Track10_43"
    INDEX 01 00:36:24
